<?xml version="1.0" encoding="utf-8"?>
<!-- Generator: Adobe Illustrator 27.7.0, SVG Export Plug-In . SVG Version: 6.00 Build 0)  -->
<svg version="1.1" id="Layer_1" xmlns="http://www.w3.org/2000/svg" xmlns:xlink="http://www.w3.org/1999/xlink" x="0px" y="0px"
	 viewBox="0 0 221.82 51.78" style="enable-background:new 0 0 221.82 51.78;" xml:space="preserve">
<style type="text/css">
	.st0{fill-rule:evenodd;clip-rule:evenodd;fill:#0073BB;}
	.st1{fill-rule:evenodd;clip-rule:evenodd;fill:#061456;}
	.st2{fill:#FEBC11;}
	.st3{fill:#061456;}
	.st4{fill:#FFFFFF;}
</style>
<g>
	<polygon class="st0" points="212.36,51.78 212.36,0 0,0 0,51.78 212.36,51.78 	"/>
	<polygon class="st1" points="51.78,51.78 51.78,0 0,0 0,51.78 51.78,51.78 	"/>
	<polygon class="st2" points="212.36,51.78 212.36,35.85 51.78,35.85 51.78,51.78 212.36,51.78 	"/>
	<g>
		<polygon class="st3" points="60.77,40.52 61.79,40.52 61.79,47.62 60.77,47.62 60.77,40.52 		"/>
		<polygon class="st3" points="69.08,40.52 70.47,40.52 73.6,46.24 73.62,46.24 73.62,40.52 74.64,40.52 74.64,47.62 73.34,47.62 
			70.12,41.78 70.1,41.78 70.1,47.62 69.08,47.62 69.08,40.52 		"/>
		<polygon class="st3" points="83.36,41.41 81.15,41.41 81.15,40.52 86.58,40.52 86.58,41.41 84.37,41.41 84.37,47.62 83.36,47.62 
			83.36,41.41 		"/>
		<polygon class="st3" points="93.15,40.52 97.13,40.52 97.13,41.41 94.16,41.41 94.16,43.49 96.86,43.49 96.86,44.38 94.16,44.38 
			94.16,46.72 97.13,46.72 97.13,47.62 93.15,47.62 93.15,40.52 		"/>
		<path class="st3" d="M104.19,40.52h1.74c1.4,0,2.76,0.22,2.76,1.92c0,0.87-0.64,1.48-1.47,1.62v0.02
			c0.32,0.12,0.47,0.27,0.69,0.71l1.34,2.83h-1.16l-1.09-2.46c-0.32-0.69-0.65-0.69-1.19-0.69h-0.61v3.16h-1.02V40.52L104.19,40.52z
			 M105.21,43.57h0.87c0.97,0,1.54-0.43,1.54-1.11c0-0.64-0.49-1.05-1.43-1.05h-0.98V43.57L105.21,43.57z"/>
		<polygon class="st3" points="115.96,40.52 117.34,40.52 120.48,46.24 120.5,46.24 120.5,40.52 121.52,40.52 121.52,47.62 
			120.21,47.62 117,41.78 116.98,41.78 116.98,47.62 115.96,47.62 115.96,40.52 		"/>
		<path class="st3" d="M131.07,40.52h1.07l3,7.1h-1.11l-0.72-1.79h-3.48l-0.72,1.79h-1.07L131.07,40.52L131.07,40.52z M131.56,41.47
			l-1.41,3.52h2.83L131.56,41.47L131.56,41.47z"/>
		<polygon class="st3" points="142.32,41.41 140.11,41.41 140.11,40.52 145.55,40.52 145.55,41.41 143.34,41.41 143.34,47.62 
			142.32,47.62 142.32,41.41 		"/>
		<polygon class="st3" points="152.07,40.52 153.08,40.52 153.08,47.62 152.07,47.62 152.07,40.52 		"/>
		<path class="st3" d="M163.45,40.39c2.16,0,3.42,1.57,3.42,3.67c0,2.16-1.25,3.67-3.42,3.67c-2.17,0-3.42-1.52-3.42-3.67
			C160.02,41.96,161.29,40.39,163.45,40.39L163.45,40.39z M163.45,46.85c1.64,0,2.34-1.36,2.34-2.78c0-1.45-0.77-2.79-2.34-2.78
			c-1.57-0.01-2.34,1.33-2.34,2.78C161.1,45.48,161.81,46.85,163.45,46.85L163.45,46.85z"/>
		<polygon class="st3" points="173.8,40.52 175.18,40.52 178.32,46.24 178.34,46.24 178.34,40.52 179.35,40.52 179.35,47.62 
			178.05,47.62 174.84,41.78 174.82,41.78 174.82,47.62 173.8,47.62 173.8,40.52 		"/>
		<path class="st3" d="M188.9,40.52h1.07l3,7.1h-1.11l-0.72-1.79h-3.48l-0.72,1.79h-1.07L188.9,40.52L188.9,40.52z M189.4,41.47
			l-1.42,3.52h2.83L189.4,41.47L189.4,41.47z"/>
		<polygon class="st3" points="199.49,40.52 200.51,40.52 200.51,46.72 203.48,46.72 203.48,47.62 199.49,47.62 199.49,40.52 		"/>
	</g>
	<path class="st4" d="M25.95,7.36c1.85,1.79,3.93,3.7,5.72,5.55l-2.1,2.7v0.13l5.56,2.49l3.76-2.58l-2.27-2.52v-0.18
		c2.33-1.65,4.33-3.24,6.58-4.75l-1.09,11.3H9.66L8.57,8.2c2.25,1.52,4.25,3.1,6.58,4.75v0.18l-2.27,2.52l3.76,2.58l5.56-2.49v-0.13
		l-2.1-2.7c1.79-1.85,3.87-3.76,5.72-5.55H25.95L25.95,7.36z"/>
	<path class="st4" d="M41.87,21.53l-0.33,3.77l-12.02,0l0,13.01l5.85-0.04c1.31,0,2.68-1.38,2.4-2.28
		c-0.31-1.31-1.49-2.18-2.58-2.84c0.22,0,4.23-2.96,6.11-4.23c-0.08,0.81-1.43,11.44-1.44,11.61L26,45.8h-0.22l-13.87-5.27
		c-0.01-0.17-1.36-10.8-1.44-11.61c1.88,1.27,5.89,4.23,6.11,4.23c-1.09,0.65-2.27,1.53-2.58,2.84c-0.28,0.9,1.1,2.28,2.4,2.28
		l5.85,0.04l0-13.01l-12.02,0l-0.33-3.77H41.87L41.87,21.53z"/>
	<g>
		<path class="st4" d="M60.66,14.75c0-3.7-0.12-4.26-2.83-4.5V9.91l5.91-0.19c6.1-0.19,6.59,2.78,6.59,3.95c0,2.03-1.26,3.2-3,3.97
			l0.12,0.17c1.86,3.27,4.19,7.43,8.18,8.26l-0.07,0.36c-2.57-0.12-4.46-0.05-5.86-1.5c-1.6-1.67-2.86-3.8-3.37-4.84
			c-0.97-2.01-1.84-1.43-3.54-1.72v3.9c0,2.66,0.05,3.15,3.37,3.61v0.36h-8.5v-0.36c2.91-0.39,2.93-1.11,3-3.61V14.75L60.66,14.75z
			 M62.79,17.95c2.32-0.02,5.04-1.09,5.04-3.78c0-2.83-2.49-3.97-5.04-3.95V17.95L62.79,17.95z"/>
		<path class="st4" d="M79.13,26.46c-3.32,0-5.96-2.11-5.96-5.54c0-3.34,2.74-5.64,5.98-5.64c3.29,0,5.93,2.13,5.93,5.55
			C85.09,24.11,82.33,26.46,79.13,26.46L79.13,26.46z M79.11,15.8c-2.62,0-3.68,2.71-3.68,4.94c0,2.25,1.26,5.18,3.87,5.18
			c2.45,0,3.54-2.78,3.54-4.87C82.83,18.83,81.75,15.8,79.11,15.8L79.11,15.8z"/>
		<path class="st4" d="M85.86,17.69c-0.44-1.09-0.53-1.33-1.74-1.53V15.8h5.01v0.36c-1.84,0.1-1.36,1.21-0.87,2.45l2.37,6.15
			l1.5-4.36c1.07-3.15,1.26-4-0.51-4.24V15.8h4.22v0.36c-1.07,0.12-1.4,0.56-1.87,1.48l-1.01,2.35l-3.71,9.37
			c-0.9,2.25-1.53,3-2.49,3c-0.65,0-1.19-0.53-1.19-1.21c0-0.51,0.29-0.97,0.78-1.14c0.24,0.15,0.99,0.68,1.28,0.68
			c0.53,0,0.97-1.31,1.14-1.67l0.8-1.86L85.86,17.69L85.86,17.69z"/>
		<path class="st4" d="M100.72,20.22c0.19-2.64-0.48-3.73-2.4-3.73c-1.67,0-1.5,0.8-1.5,2.13l-1.21,0.07
			c-0.19,0-0.56,0.02-0.56-0.24c0-0.65,2.66-3.17,4.63-3.17c2.23,0,2.91,1.7,2.91,3.63v3.44c0,2.13-0.2,3.46,2.11,3.1V26
			c-0.92,0.27-1.72,0.35-2.45,0.35c-1.02,0-1.4-0.58-1.53-1.53c-0.78,0.87-1.84,1.65-3.08,1.65c-1.55,0-2.42-1.31-2.42-2.76
			c0-0.36,0.05-0.7,0.15-1.07L100.72,20.22L100.72,20.22z M97.45,22.38c-0.1,0.31-0.17,0.63-0.17,0.97c0,1.02,0.58,1.91,1.7,1.91
			c0.65,0,1.31-0.44,1.74-0.9v-3.66L97.45,22.38L97.45,22.38z"/>
		<path class="st4" d="M103.57,26.23v-0.59c1.68-0.2,1.89-0.59,1.89-2.22V13.13c0-1.02,0.02-1.33-1.19-2.2v-0.24l2.78-1.07l0.27,0.1
			v13.71c0,1.99,0.1,2.18,1.89,2.45v0.36H103.57L103.57,26.23z"/>
		<path class="st4" d="M132.1,20.22c0.19-2.64-0.48-3.73-2.4-3.73c-1.67,0-1.5,0.8-1.5,2.13l-1.21,0.07c-0.19,0-0.56,0.02-0.56-0.24
			c0-0.65,2.66-3.17,4.62-3.17c2.23,0,2.91,1.7,2.91,3.63v3.44c0,2.13-0.24,3.6,2.11,3.1V26c-0.92,0.27-1.72,0.35-2.45,0.35
			c-1.02,0-1.4-0.58-1.53-1.53c-0.78,0.87-1.84,1.65-3.08,1.65c-1.55,0-2.42-1.31-2.42-2.76c0-0.36,0.05-0.7,0.15-1.07L132.1,20.22
			L132.1,20.22z M128.83,22.38c-0.1,0.31-0.17,0.63-0.17,0.97c0,1.02,0.58,1.91,1.69,1.91c0.65,0,1.31-0.44,1.74-0.9v-3.66
			L128.83,22.38L128.83,22.38z"/>
		<path class="st4" d="M125.03,14.74h-0.36c-0.46-2.74-2.06-4.7-4.96-4.7c-4.43,0-6.93,3.63-6.93,7.8c0,4.77,3.66,8.09,7.17,8.09
			c3.17,0,4.43-2.32,5.52-4.94l0.34,0.15c-0.29,1.48-0.75,2.93-1.33,4.33c-1.55,0.75-3.22,1.04-4.94,1.04
			c-5.06,0-9.56-2.91-9.56-8.38c0-4.31,3.37-8.67,9.76-8.67c1.84,0,3.71,0.36,5.3,1.31V14.74L125.03,14.74z"/>
		<path class="st4" d="M189.64,20.22c0.2-2.64-0.48-3.73-2.4-3.73c-1.67,0-1.5,0.8-1.5,2.13l-1.21,0.07c-0.19,0-0.56,0.02-0.56-0.24
			c0-0.65,2.66-3.17,4.62-3.17c2.23,0,2.91,1.7,2.91,3.63v3.44c0,2.13-0.34,3.49,1.87,3.36v0.43c-0.92,0.27-1.48,0.2-2.21,0.2
			c-1.02,0-1.4-0.58-1.53-1.53c-0.77,0.87-1.84,1.65-3.07,1.65c-1.55,0-2.42-1.31-2.42-2.76c0-0.36,0.05-0.7,0.14-1.07L189.64,20.22
			L189.64,20.22z M186.37,22.37c-0.1,0.31-0.17,0.63-0.17,0.97c0,1.02,0.58,1.91,1.7,1.91c0.65,0,1.31-0.44,1.74-0.9V20.7
			L186.37,22.37L186.37,22.37z"/>
		<path class="st4" d="M138.7,23.41c0,1.99,0.1,2.18,2.42,2.45v0.36h-6.05v-0.58c1.63-0.14,1.74-0.54,1.77-2.43v-4.43
			c0-1.02,0.02-1.33-1.19-2.2v-0.24l2.88-1.07l0.27,0.1l-0.1,2.86h0.05c0.53-1.28,1.89-2.95,3.42-2.95c0.68,0,1.23,0.44,1.23,1.11
			c0,0.65-0.7,1.26-1.26,1.53c-0.41-0.31-1.02-0.85-1.55-0.8c-2.06,0.19-1.89,3.49-1.89,3.85V23.41L138.7,23.41z"/>
		<path class="st4" d="M144.15,26.22v-0.36c1.79-0.27,1.86-0.56,1.89-2.45v-4.62c0-1.02,0.02-1.33-1.48-2.2v-0.24l3.08-1.07
			l0.27,0.1v8.04c0,1.99,0.1,2.18,1.89,2.45v0.36H144.15L144.15,26.22z M148.1,11.24c0,0.68-0.56,1.24-1.24,1.24
			c-0.68,0-1.24-0.56-1.24-1.24c0-0.68,0.56-1.23,1.24-1.23C147.54,10.01,148.1,10.56,148.1,11.24L148.1,11.24z"/>
		<path class="st4" d="M150.68,13.12c0-1.02,0.03-1.33-1.19-2.2v-0.24l2.79-1.07l0.27,0.1v6.93c1.19-0.65,2.66-1.36,4.04-1.36
			c2.69,0,4.55,2.49,4.55,5.04c0,4.29-3.95,6.15-6.61,6.15c-1.45,0-2.54-0.39-3.85-0.97V13.12L150.68,13.12z M152.54,21.31
			c0,2.25,0.24,4.41,3.05,4.41c1.33,0,3.49-1.07,3.49-4.43c0-2.91-1.94-4.79-4.29-4.79c-0.82,0-1.5,0.22-2.25,0.53V21.31
			L152.54,21.31z"/>
		<path class="st4" d="M162.26,13.12c0-1.02,0.02-1.33-1.19-2.2v-0.24l2.78-1.07l0.27,0.1v6.93c1.19-0.65,2.66-1.36,4.04-1.36
			c2.69,0,4.55,2.49,4.55,5.04c0,4.29-3.95,6.15-6.61,6.15c-1.45,0-2.54-0.39-3.85-0.97V13.12L162.26,13.12z M164.12,21.31
			c0,2.25,0.24,4.41,3.05,4.41c1.33,0,3.49-1.07,3.49-4.43c0-2.91-1.94-4.79-4.29-4.79c-0.82,0-1.5,0.22-2.25,0.53V21.31
			L164.12,21.31z"/>
		<path class="st4" d="M175.89,20.05c-0.19,2.52,1.53,4.87,4.26,4.87c1.26,0,2.13-0.56,2.86-1.53l0.36,0.27
			c-0.92,1.57-2.57,2.81-4.46,2.81c-3,0-5.09-2.47-5.09-5.38c0-3.12,2.18-5.81,5.45-5.81c2.18,0,3.63,1.38,3.73,3.56h-7.02
			L175.89,20.05L175.89,20.05z M180.7,18.18c-0.22-1.11-0.9-2.37-2.18-2.37c-1.38,0-2.2,1.36-2.47,2.57L180.7,18.18L180.7,18.18z"/>
		<path class="st4" d="M194.44,18.79c0-1.02,0.02-1.33-1.19-2.2v-0.24l2.88-1.07l0.27,0.1l-0.19,1.77c1.38-1.02,2.71-1.86,4.26-1.86
			c2.91,0,3.05,2.4,3.05,3.83v4.31c0,1.99,0.1,2.18,1.89,2.45v0.36h-5.64v-0.36c1.79-0.27,1.87-0.56,1.89-2.45v-2.78
			c0-1.69,0.07-4.09-2.88-4.09c-0.99,0-1.67,0.32-2.47,1.04v5.84c0,1.99,0.1,2.18,1.89,2.45v0.36h-5.64l0-0.44
			c1.74-0.13,1.87-0.48,1.89-2.37V18.79L194.44,18.79z"/>
	</g>
</g>
</svg>
